#!OML:ASF E:\Steps\Project 1\Capture day 1\Session 2\Subject.ASF
:FULLY-SPECIFIED
:DEGREES
473
root 9.45663 16.2884 13.2594 -156.171 0.915731 175.73
lowerback -24.393 -3.43448 -8.74028
upperback -3.20129 -1.15228 -1.41575
thorax 10.2445 -0.480275 3.1077
lowerneck 1.4833 -2.83879 -1.99005
upperneck -11.9191 -2.70896 6.27463
head -4.06032 -1.28257 2.55821
rclavicle 7.90169e-015 -2.14687e-014
rhumerus -35.5871 -24.7822 -76.0409
rradius 19.287
rwrist 12.5555
rhand -7.79929 -53.548
rfingers 7.12502
rthumb 18.102 -82.7256
lclavicle 7.90169e-015 -2.14687e-014
lhumerus -27.4174 14.7747 77.7801
lradius 10.3967
lwrist -21.9852
lhand -24.1728 -12.547
lfingers 7.12502
lthumb 2.31043 17.4202
rfemur -20.0521 7.84481 13.5503
rtibia 8.45858
rfoot -20.8627 -7.76752
rtoes -27.3799
lfemur -19.5686 -9.45436 -23.9246
ltibia 7.41083
lfoot -8.55849 1.3403
ltoes -42.0339
474
root 9.45717 16.2855 13.2552 -156.171 0.682369 175.766
lowerback -24.8476 -2.45874 -9.06587
upperback -2.90663 -1.42658 -1.49468
thorax 10.7558 -1.37046 2.97006
lowerneck 1.59342 -2.8846 -1.96203
upperneck -12.4261 -2.71312 6.24092
head -4.26471 -1.27357 2.55842
rclavicle -1.20762e-014 -9.14409e-015
rhumerus -35.1878 -24.0095 -76.7905
rradius 19.6893
rwrist 11.6984
rhand -7.50009 -53.2793
rfingers 7.12502
rthumb 18.3898 -82.43
lclavicle -1.20762e-014 -9.14409e-015
lhumerus -26.9247 14.5131 78.045
lradius 10.3932
lwrist -22.3806
lhand -24.5512 -13.2627
lfingers 7.12502
lthumb 1.945 16.7081
rfemur -19.9402 7.79347 13.6473
rtibia 8.42468
rfoot -20.9461 -7.85483
rtoes -27.119
lfemur -19.5429 -9.66931 -23.8269
ltibia 7.41288
lfoot -8.58179 1.38889
ltoes -41.6139
475
root 9.45779 16.2837 13.2551 -156.213 0.535288 175.775
lowerback -25.0053 -2.50124 -9.05272
upperback -2.77852 -1.44281 -1.47309
thorax 10.9909 -1.38137 2.97459
lowerneck 1.4614 -2.93402 -1.94786
upperneck -12.7061 -2.74086 6.1896
head -4.3389 -1.27253 2.54287
rclavicle 1.2424e-015 -6.36111e-015
rhumerus -34.8789 -23.2582 -77.295
rradius 19.9225
rwrist 10.8165
rhand -7.73746 -52.7079
rfingers 7.12502
rthumb 18.1614 -81.88
lclavicle 1.2424e-015 -6.36111e-015
lhumerus -26.6671 14.5231 78.2647
lradius 10.4211
lwrist -22.9659
lhand -25.0214 -13.9188
lfingers 7.12502
lthumb 1.49094 16.0558
rfemur -19.8373 7.74454 13.7077
rtibia 8.3868
rfoot -20.9358 -7.93447
rtoes -27.2237
lfemur -19.4993 -9.78461 -23.7943
ltibia 7.38286
lfoot -8.5832 1.40205
ltoes -41.7394
476
root 9.46088 16.2815 13.2569 -156.226 0.459513 175.793
lowerback -25.1237 -2.51508 -9.09669
upperback -2.69979 -1.42208 -1.43699
thorax 11.1449 -1.37694 3.04301
lowerneck 1.33658 -3.0824 -1.85404
upperneck -13.0097 -2.88014 6.23599
head -4.41818 -1.33234 2.55152
rclavicle -3.77691e-015 3.1408e-014
rhumerus -34.6373 -22.7507 -77.5939
rradius 20.001
rwrist 10.2064
rhand -8.58365 -51.9785
rfingers 7.12502
rthumb 17.3472 -81.2244
lclavicle -3.77691e-015 3.1408e-014
lhumerus -26.4401 13.6727 78.8438
lradius 10.5884
lwrist -22.6925
lhand -25.513 -13.8403
lfingers 7.12502
lthumb 1.01611 16.137
rfemur -19.8484 7.74243 13.7727
rtibia 8.44983
rfoot -20.9139 -8.04232
rtoes -27.4985
lfemur -19.4928 -9.8994 -23.7404
ltibia 7.33766
lfoot -8.57983 1.49989
ltoes -42.3297
477
root 9.46455 16.2796 13.2558 -156.227 0.400966 175.814
lowerback -25.2477 -2.50736 -9.12872
upperback -2.67737 -1.38878 -1.40343
thorax 11.2344 -1.36652 3.1073
lowerneck 1.28974 -3.20695 -1.80985
upperneck -13.6448 -2.96038 6.44712
head -4.14396 -1.3978 2.36626
rclavicle -8.94531e-016 4.92986e-014
rhumerus -34.6558 -22.4721 -77.6907
rradius 20.2345
rwrist 9.92696
rhand -8.70012 -52.0564
rfingers 7.12502
rthumb 17.2351 -81.3121
lclavicle -8.94531e-016 4.92986e-014
lhumerus -26.2961 12.5149 79.5091
lradius 10.7842
lwrist -22.0566
lhand -25.8769 -13.5125
lfingers 7.12502
lthumb 0.664636 16.4662
rfemur -19.8247 7.65974 13.8521
rtibia 8.45184
rfoot -20.9344 -8.0401
rtoes -27.6251
lfemur -19.462 -10.0086 -23.682
ltibia 7.31516
lfoot -8.61913 1.59214
ltoes -42.1713
478
root 9.46726 16.2794 13.2536 -156.29 0.357599 175.803
lowerback -25.2484 -2.50362 -9.19415
upperback -2.68226 -1.36836 -1.36989
thorax 11.2285 -1.36007 3.19001
lowerneck 1.15303 -3.20378 -1.85245
upperneck -13.1277 -3.02233 6.20187
head -4.41777 -1.39056 2.54219
rclavicle -1.92324e-014 3.93594e-014
rhumerus -34.7952 -22.2594 -77.6904
rradius 20.5927
rwrist 9.83082
rhand -8.27832 -52.4461
rfingers 7.12502
rthumb 17.641 -81.6658
lclavicle -1.92324e-014 3.93594e-014
lhumerus -26.2161 11.7534 80.0028
lradius 10.9053
lwrist -21.7498
lhand -26.1524 -13.433
lfingers 7.12502
lthumb 0.398586 16.5464
rfemur -19.6531 7.47754 13.8991
rtibia 8.32837
rfoot -20.9532 -7.84597
rtoes -27.323
lfemur -19.3355 -10.0159 -23.7037
ltibia 7.25778
lfoot -8.63567 1.59245
ltoes -42.0011
479
root 9.47096 16.2795 13.2546 -156.358 0.375831 175.786
lowerback -25.2502 -2.50411 -9.28371
upperback -2.65087 -1.33832 -1.35224
thorax 11.2641 -1.35063 3.27095
lowerneck 1.18244 -3.2009 -1.85957
upperneck -13.0505 -3.03203 6.19887
head -4.39494 -1.39865 2.54149
rclavicle 6.70898e-015 9.54166e-015
rhumerus -34.7538 -22.2166 -77.7129
rradius 20.7686
rwrist 9.77908
rhand -8.32646 -52.4933
rfingers 7.12502
rthumb 17.5947 -81.7172
lclavicle 6.70898e-015 9.54166e-015
lhumerus -26.1578 11.4209 80.2832
lradius 11.0526
lwrist -21.7388
lhand -26.4873 -13.4464
lfingers 7.12502
lthumb 0.0751053 16.5333
rfemur -19.5466 7.4149 13.9048
rtibia 8.27229
rfoot -20.9647 -7.69171
rtoes -26.875
lfemur -19.2488 -9.92938 -23.748
ltibia 7.22802
lfoot -8.63188 1.58197
ltoes -42.7905
480
root 9.47581 16.2782 13.2586 -156.368 0.482496 175.773
lowerback -25.36 -2.48119 -9.3855
upperback -2.59356 -1.2588 -1.34869
thorax 11.3808 -1.3226 3.35702
lowerneck 1.27716 -3.24809 -1.81478
upperneck -13.6139 -3.02654 6.40298
head -4.13045 -1.4287 2.35522
rclavicle 1.15295e-014 -4.21423e-014
rhumerus -34.5912 -22.3982 -77.6976
rradius 20.8075
rwrist 9.805
rhand -8.2729 -52.4932
rfingers 7.12502
rthumb 17.6462 -81.7125
lclavicle 1.15295e-014 -4.21423e-014
lhumerus -26.1015 11.4218 80.4338
lradius 11.2889
lwrist -21.7836
lhand -26.6888 -13.2521
lfingers 7.12502
lthumb -0.119547 16.7276
rfemur -19.6123 7.46503 13.8793
rtibia 8.33074
rfoot -20.9741 -7.61501
rtoes -26.7271
lfemur -19.2575 -9.8373 -23.7811
ltibia 7.2617
lfoot -8.64591 1.64796
ltoes -43.7444
481
root 9.48041 16.2769 13.2626 -156.339 0.588195 175.766
lowerback -25.5557 -2.43655 -9.45573
upperback -2.52562 -1.14832 -1.35461
thorax 11.5508 -1.28148 3.42346
lowerneck 1.23939 -3.29919 -1.79432
upperneck -13.7271 -3.0756 6.40692
head -4.15663 -1.44886 2.35551
rclavicle -1.5704e-014 3.49861e-014
rhumerus -34.4289 -22.9022 -77.5152
rradius 20.7472
rwrist 10.1611
rhand -8.19358 -52.4593
rfingers 7.12502
rthumb 17.7226 -81.6716
lclavicle -1.5704e-014 3.49861e-014
lhumerus -25.9992 11.3631 80.6285
lradius 11.53
lwrist -21.583
lhand -26.7958 -13.3919
lfingers 7.12502
lthumb -0.222894 16.5877
rfemur -19.7419 7.53994 13.8555
rtibia 8.4447
rfoot -20.9716 -7.59855
rtoes -26.5139
lfemur -19.3161 -9.77646 -23.7912
ltibia 7.30556
lfoot -8.64137 1.71429
ltoes -43.5716
482
root 9.48345 16.2761 13.2659 -156.316 0.68698 175.789
lowerback -25.6256 -2.39142 -9.47099
upperback -2.56264 -1.08869 -1.33743
thorax 11.5371 -1.25681 3.47202
lowerneck 1.21742 -3.26291 -1.87081
upperneck -13.2207 -3.09528 6.19668
head -4.46068 -1.42449 2.55081
rclavicle -3.77691e-015 -3.89618e-014
rhumerus -34.4444 -23.4122 -77.1777
rradius 20.5773
rwrist 10.6624
rhand -8.753 -52.2413
rfingers 7.12502
rthumb 17.1842 -81.5015
lclavicle -3.77691e-015 -3.89618e-014
lhumerus -26.1103 10.6818 81.0089
lradius 11.8755
lwrist -20.587
lhand -27.137 -13.7146
lfingers 7.12502
lthumb -0.552418 16.2645
rfemur -19.8761 7.52278 13.8812
rtibia 8.58602
rfoot -20.9709 -7.56154
rtoes -26.6114
lfemur -19.3779 -9.8109 -23.7483
ltibia 7.35532
lfoot -8.62677 1.83827
ltoes -42.777
